<mxfile host="app.diagrams.net" modified="2023-10-26T14:31:05.858Z" agent="Mozilla/5.0 (X11; Linux x86_64; rv:109.0) Gecko/20100101 Firefox/115.0" etag="DA3skaueM-lHySTBLYxc" version="22.0.8" type="device">
  <diagram name="Page-1" id="jla4qwjFgwFRS1lIauP8">
    <mxGraphModel dx="1434" dy="764" grid="1" gridSize="10" guides="1" tooltips="1" connect="1" arrows="1" fold="1" page="1" pageScale="1" pageWidth="827" pageHeight="1169" math="0" shadow="0">
      <root>
        <mxCell id="0" />
        <mxCell id="1" parent="0" />
        <mxCell id="4sC6NxI0jN4h-IAwyfg9-5" value="" style="whiteSpace=wrap;html=1;aspect=fixed;movable=0;resizable=0;rotatable=0;deletable=0;editable=0;locked=1;connectable=0;" vertex="1" parent="1">
          <mxGeometry x="150" y="20" width="630" height="630" as="geometry" />
        </mxCell>
        <mxCell id="4sC6NxI0jN4h-IAwyfg9-18" style="edgeStyle=orthogonalEdgeStyle;rounded=0;orthogonalLoop=1;jettySize=auto;html=1;" edge="1" parent="1" source="4sC6NxI0jN4h-IAwyfg9-4" target="4sC6NxI0jN4h-IAwyfg9-7">
          <mxGeometry relative="1" as="geometry" />
        </mxCell>
        <mxCell id="4sC6NxI0jN4h-IAwyfg9-49" style="edgeStyle=orthogonalEdgeStyle;rounded=0;orthogonalLoop=1;jettySize=auto;html=1;entryX=1;entryY=0.5;entryDx=0;entryDy=0;" edge="1" parent="1" source="4sC6NxI0jN4h-IAwyfg9-4" target="4sC6NxI0jN4h-IAwyfg9-39">
          <mxGeometry relative="1" as="geometry" />
        </mxCell>
        <mxCell id="4sC6NxI0jN4h-IAwyfg9-4" value="enseignant" style="shape=umlActor;verticalLabelPosition=bottom;verticalAlign=top;html=1;outlineConnect=0;" vertex="1" parent="1">
          <mxGeometry x="50" y="38" width="30" height="60" as="geometry" />
        </mxCell>
        <mxCell id="4sC6NxI0jN4h-IAwyfg9-6" value="&lt;div&gt;kahoot&lt;/div&gt;" style="text;align=center;fontStyle=1;verticalAlign=middle;spacingLeft=3;spacingRight=3;strokeColor=none;rotatable=0;points=[[0,0.5],[1,0.5]];portConstraint=eastwest;html=1;" vertex="1" parent="1">
          <mxGeometry x="150" y="20" width="80" height="26" as="geometry" />
        </mxCell>
        <mxCell id="4sC6NxI0jN4h-IAwyfg9-7" value="Creer partie" style="ellipse;whiteSpace=wrap;html=1;" vertex="1" parent="1">
          <mxGeometry x="160" y="46" width="130" height="44" as="geometry" />
        </mxCell>
        <mxCell id="4sC6NxI0jN4h-IAwyfg9-10" value="&lt;div&gt;Choisir niveau de difficulté&lt;/div&gt;&lt;div&gt;en fonction de la popularité&lt;/div&gt;" style="ellipse;whiteSpace=wrap;html=1;" vertex="1" parent="1">
          <mxGeometry x="470" y="28" width="180" height="70" as="geometry" />
        </mxCell>
        <mxCell id="4sC6NxI0jN4h-IAwyfg9-11" value="&lt;div&gt;Choisir le theme des scientifiques&lt;/div&gt;&lt;div&gt;(Math, SVT, Informatique, tous...)&lt;/div&gt;" style="ellipse;whiteSpace=wrap;html=1;" vertex="1" parent="1">
          <mxGeometry x="480" y="110" width="220" height="70" as="geometry" />
        </mxCell>
        <mxCell id="4sC6NxI0jN4h-IAwyfg9-24" style="edgeStyle=orthogonalEdgeStyle;rounded=0;orthogonalLoop=1;jettySize=auto;html=1;entryX=0;entryY=0.5;entryDx=0;entryDy=0;" edge="1" parent="1" source="4sC6NxI0jN4h-IAwyfg9-19" target="4sC6NxI0jN4h-IAwyfg9-23">
          <mxGeometry relative="1" as="geometry" />
        </mxCell>
        <mxCell id="4sC6NxI0jN4h-IAwyfg9-48" style="edgeStyle=orthogonalEdgeStyle;rounded=0;orthogonalLoop=1;jettySize=auto;html=1;entryX=0;entryY=0.5;entryDx=0;entryDy=0;" edge="1" parent="1" source="4sC6NxI0jN4h-IAwyfg9-19" target="4sC6NxI0jN4h-IAwyfg9-46">
          <mxGeometry relative="1" as="geometry" />
        </mxCell>
        <mxCell id="4sC6NxI0jN4h-IAwyfg9-19" value="&lt;div&gt;joueur&lt;/div&gt;" style="shape=umlActor;verticalLabelPosition=bottom;verticalAlign=top;html=1;" vertex="1" parent="1">
          <mxGeometry x="50" y="325" width="30" height="60" as="geometry" />
        </mxCell>
        <mxCell id="4sC6NxI0jN4h-IAwyfg9-23" value="&lt;div&gt;Rejoindre partie&lt;/div&gt;&lt;div&gt;non lancée&lt;br&gt;&lt;/div&gt;" style="ellipse;whiteSpace=wrap;html=1;" vertex="1" parent="1">
          <mxGeometry x="155" y="330" width="130" height="50" as="geometry" />
        </mxCell>
        <mxCell id="4sC6NxI0jN4h-IAwyfg9-25" value="&lt;div&gt;Répondre a une question&lt;/div&gt;" style="ellipse;whiteSpace=wrap;html=1;" vertex="1" parent="1">
          <mxGeometry x="440" y="330" width="140" height="70" as="geometry" />
        </mxCell>
        <mxCell id="4sC6NxI0jN4h-IAwyfg9-26" value="&lt;div&gt;&amp;lt;&amp;lt;include&amp;gt;&amp;gt;&lt;/div&gt;" style="html=1;verticalAlign=bottom;endArrow=open;dashed=1;endSize=8;curved=0;rounded=0;entryX=0;entryY=0.5;entryDx=0;entryDy=0;exitX=1;exitY=0.5;exitDx=0;exitDy=0;" edge="1" parent="1" source="4sC6NxI0jN4h-IAwyfg9-40" target="4sC6NxI0jN4h-IAwyfg9-25">
          <mxGeometry relative="1" as="geometry">
            <mxPoint x="350" y="355" as="sourcePoint" />
            <mxPoint x="440" y="345" as="targetPoint" />
          </mxGeometry>
        </mxCell>
        <mxCell id="4sC6NxI0jN4h-IAwyfg9-27" value="&lt;div&gt;Répondre juste a une question&lt;/div&gt;" style="ellipse;whiteSpace=wrap;html=1;" vertex="1" parent="1">
          <mxGeometry x="390" y="435" width="130" height="50" as="geometry" />
        </mxCell>
        <mxCell id="4sC6NxI0jN4h-IAwyfg9-28" value="" style="endArrow=block;endSize=16;endFill=0;html=1;rounded=0;exitX=0.585;exitY=-0.02;exitDx=0;exitDy=0;exitPerimeter=0;entryX=0.343;entryY=0.957;entryDx=0;entryDy=0;entryPerimeter=0;" edge="1" parent="1" source="4sC6NxI0jN4h-IAwyfg9-27" target="4sC6NxI0jN4h-IAwyfg9-25">
          <mxGeometry width="160" relative="1" as="geometry">
            <mxPoint x="400" y="345" as="sourcePoint" />
            <mxPoint x="560" y="345" as="targetPoint" />
          </mxGeometry>
        </mxCell>
        <mxCell id="4sC6NxI0jN4h-IAwyfg9-29" value="&lt;div&gt;Répondre faux a une question&lt;/div&gt;" style="ellipse;whiteSpace=wrap;html=1;" vertex="1" parent="1">
          <mxGeometry x="540" y="425" width="130" height="50" as="geometry" />
        </mxCell>
        <mxCell id="4sC6NxI0jN4h-IAwyfg9-30" value="" style="endArrow=block;endSize=16;endFill=0;html=1;rounded=0;entryX=0.793;entryY=0.9;entryDx=0;entryDy=0;entryPerimeter=0;" edge="1" parent="1" source="4sC6NxI0jN4h-IAwyfg9-29" target="4sC6NxI0jN4h-IAwyfg9-25">
          <mxGeometry width="160" relative="1" as="geometry">
            <mxPoint x="476" y="444" as="sourcePoint" />
            <mxPoint x="498" y="397" as="targetPoint" />
            <Array as="points" />
          </mxGeometry>
        </mxCell>
        <mxCell id="4sC6NxI0jN4h-IAwyfg9-31" value="&lt;div&gt;Ajouter scientifique dans historique&lt;/div&gt;" style="ellipse;whiteSpace=wrap;html=1;" vertex="1" parent="1">
          <mxGeometry x="395" y="525" width="120" height="50" as="geometry" />
        </mxCell>
        <mxCell id="4sC6NxI0jN4h-IAwyfg9-33" value="&lt;div&gt;&amp;lt;&amp;lt;include&amp;gt;&amp;gt;&lt;/div&gt;" style="html=1;verticalAlign=bottom;endArrow=open;dashed=1;endSize=8;curved=0;rounded=0;entryX=0.5;entryY=0;entryDx=0;entryDy=0;exitX=0.5;exitY=1;exitDx=0;exitDy=0;" edge="1" parent="1" source="4sC6NxI0jN4h-IAwyfg9-27" target="4sC6NxI0jN4h-IAwyfg9-31">
          <mxGeometry relative="1" as="geometry">
            <mxPoint x="520" y="345" as="sourcePoint" />
            <mxPoint x="440" y="345" as="targetPoint" />
          </mxGeometry>
        </mxCell>
        <mxCell id="4sC6NxI0jN4h-IAwyfg9-34" value="&lt;div&gt;Affiche les questions&lt;br&gt;&lt;/div&gt;" style="ellipse;whiteSpace=wrap;html=1;" vertex="1" parent="1">
          <mxGeometry x="375" y="200" width="140" height="50" as="geometry" />
        </mxCell>
        <mxCell id="4sC6NxI0jN4h-IAwyfg9-36" value="&lt;div&gt;&amp;lt;&amp;lt;include&amp;gt;&amp;gt;&lt;/div&gt;" style="html=1;verticalAlign=bottom;endArrow=open;dashed=1;endSize=8;curved=0;rounded=0;exitX=0.454;exitY=1;exitDx=0;exitDy=0;exitPerimeter=0;entryX=0.5;entryY=1;entryDx=0;entryDy=0;" edge="1" parent="1" source="4sC6NxI0jN4h-IAwyfg9-7" target="4sC6NxI0jN4h-IAwyfg9-39">
          <mxGeometry relative="1" as="geometry">
            <mxPoint x="460" y="280" as="sourcePoint" />
            <mxPoint x="380" y="280" as="targetPoint" />
          </mxGeometry>
        </mxCell>
        <mxCell id="4sC6NxI0jN4h-IAwyfg9-37" value="&lt;div&gt;&amp;lt;&amp;lt;include&amp;gt;&amp;gt;&lt;/div&gt;" style="html=1;verticalAlign=bottom;endArrow=open;dashed=1;endSize=8;curved=0;rounded=0;entryX=0;entryY=0.5;entryDx=0;entryDy=0;exitX=0.923;exitY=0.727;exitDx=0;exitDy=0;exitPerimeter=0;" edge="1" parent="1" source="4sC6NxI0jN4h-IAwyfg9-7" target="4sC6NxI0jN4h-IAwyfg9-11">
          <mxGeometry relative="1" as="geometry">
            <mxPoint x="460" y="280" as="sourcePoint" />
            <mxPoint x="380" y="280" as="targetPoint" />
          </mxGeometry>
        </mxCell>
        <mxCell id="4sC6NxI0jN4h-IAwyfg9-38" value="&lt;div&gt;&amp;lt;&amp;lt;include&amp;gt;&amp;gt;&lt;/div&gt;" style="html=1;verticalAlign=bottom;endArrow=open;dashed=1;endSize=8;curved=0;rounded=0;entryX=0;entryY=0.5;entryDx=0;entryDy=0;exitX=1;exitY=0.5;exitDx=0;exitDy=0;" edge="1" parent="1" source="4sC6NxI0jN4h-IAwyfg9-7" target="4sC6NxI0jN4h-IAwyfg9-10">
          <mxGeometry relative="1" as="geometry">
            <mxPoint x="460" y="280" as="sourcePoint" />
            <mxPoint x="380" y="280" as="targetPoint" />
          </mxGeometry>
        </mxCell>
        <mxCell id="4sC6NxI0jN4h-IAwyfg9-39" value="&lt;div&gt;Lancer partie&lt;/div&gt;" style="ellipse;whiteSpace=wrap;html=1;direction=west;" vertex="1" parent="1">
          <mxGeometry x="160" y="150" width="130" height="50" as="geometry" />
        </mxCell>
        <mxCell id="4sC6NxI0jN4h-IAwyfg9-40" value="Jouer dans partie lancée" style="ellipse;whiteSpace=wrap;html=1;" vertex="1" parent="1">
          <mxGeometry x="170" y="425" width="130" height="50" as="geometry" />
        </mxCell>
        <mxCell id="4sC6NxI0jN4h-IAwyfg9-42" value="&amp;lt;&amp;lt;include&amp;gt;&amp;gt;" style="html=1;verticalAlign=bottom;endArrow=open;dashed=1;endSize=8;curved=0;rounded=0;entryX=0;entryY=0.5;entryDx=0;entryDy=0;exitX=0;exitY=0.5;exitDx=0;exitDy=0;" edge="1" parent="1" source="4sC6NxI0jN4h-IAwyfg9-39" target="4sC6NxI0jN4h-IAwyfg9-34">
          <mxGeometry relative="1" as="geometry">
            <mxPoint x="460" y="280" as="sourcePoint" />
            <mxPoint x="380" y="280" as="targetPoint" />
          </mxGeometry>
        </mxCell>
        <mxCell id="4sC6NxI0jN4h-IAwyfg9-44" value="&amp;lt;&amp;lt;include&amp;gt;&amp;gt;" style="html=1;verticalAlign=bottom;endArrow=open;dashed=1;endSize=8;curved=0;rounded=0;exitX=0.5;exitY=1;exitDx=0;exitDy=0;entryX=0.5;entryY=0;entryDx=0;entryDy=0;" edge="1" parent="1" source="4sC6NxI0jN4h-IAwyfg9-23" target="4sC6NxI0jN4h-IAwyfg9-40">
          <mxGeometry relative="1" as="geometry">
            <mxPoint x="460" y="280" as="sourcePoint" />
            <mxPoint x="230" y="390" as="targetPoint" />
          </mxGeometry>
        </mxCell>
        <mxCell id="4sC6NxI0jN4h-IAwyfg9-46" value="voir résultats finaux" style="ellipse;whiteSpace=wrap;html=1;" vertex="1" parent="1">
          <mxGeometry x="150" y="230" width="140" height="60" as="geometry" />
        </mxCell>
      </root>
    </mxGraphModel>
  </diagram>
</mxfile>
